<?xml version="1.0" standalone="no"?><!DOCTYPE svg PUBLIC "-//W3C//DTD SVG 1.1//EN"
        "http://www.w3.org/Graphics/SVG/1.1/DTD/svg11.dtd">
<svg t="1653221750761" class="icon" viewBox="0 0 1024 1024" version="1.1" xmlns="http://www.w3.org/2000/svg" p-id="5461"
     xmlns:xlink="http://www.w3.org/1999/xlink" width="200" height="200">
    <defs>
        <style type="text/css">@font-face { font-family: feedback-iconfont; src:
            url("//at.alicdn.com/t/font_1031158_u69w8yhxdu.woff2?t=1630033759944") format("woff2"),
            url("//at.alicdn.com/t/font_1031158_u69w8yhxdu.woff?t=1630033759944") format("woff"),
            url("//at.alicdn.com/t/font_1031158_u69w8yhxdu.ttf?t=1630033759944") format("truetype"); }
        </style>
    </defs>
    <path d="M512 512m-489.87843169 0a489.87843169 489.87843169 0 1 0 979.75686338 0 489.87843169 489.87843169 0 1 0-979.75686338 0Z"
          fill="#958EFF" p-id="5462"></path>
    <path d="M639.89929499 667.24882975L363.99075298 391.34028778c-9.65277699-9.65277699-9.65277699-24.93634053 0-33.78471945 9.65277699-9.65277699 24.93634053-9.65277699 33.78471944 0l275.90854198 275.90854198c9.65277699 9.65277699 9.65277699 24.93634053 0 33.78471944s-24.93634053 8.8483789-33.78471941 0z"
          fill="#FFFFFF" p-id="5463"></path>
    <path d="M673.6840144 391.34028778l-275.90854198 275.90854197c-9.65277699 9.65277699-24.93634053 9.65277699-33.78471944 0-9.65277699-9.65277699-9.65277699-24.93634053 0-33.78471944l275.90854201-275.90854198c9.65277699-9.65277699 24.93634053-9.65277699 33.78471941 0 9.65277699 8.8483789 9.65277699 24.13194244 0 33.78471945z"
          fill="#FFFFFF" p-id="5464"></path>
</svg>