<?xml version="1.0" standalone="no"?><!DOCTYPE svg PUBLIC "-//W3C//DTD SVG 1.1//EN"
        "http://www.w3.org/Graphics/SVG/1.1/DTD/svg11.dtd">
<svg t="1653221713192" class="icon" viewBox="0 0 1024 1024" version="1.1" xmlns="http://www.w3.org/2000/svg" p-id="2942"
     xmlns:xlink="http://www.w3.org/1999/xlink" width="200" height="200">
    <defs>
        <style type="text/css">@font-face { font-family: feedback-iconfont; src:
            url("//at.alicdn.com/t/font_1031158_u69w8yhxdu.woff2?t=1630033759944") format("woff2"),
            url("//at.alicdn.com/t/font_1031158_u69w8yhxdu.woff?t=1630033759944") format("woff"),
            url("//at.alicdn.com/t/font_1031158_u69w8yhxdu.ttf?t=1630033759944") format("truetype"); }
        </style>
    </defs>
    <path d="M512 512m-512 0a512 512 0 1 0 1024 0 512 512 0 1 0-1024 0Z" fill="#3975C7" p-id="2943"></path>
    <path d="M462.933333 486.4l-59.733333 59.733333c-6.4 6.4-10.666667 14.933333-10.666667 25.6 0 8.533333 4.266667 17.066667 10.666667 25.6l25.6 25.6c6.4 6.4 14.933333 10.666667 25.6 10.666667s17.066667-4.266667 25.6-10.666667l59.733333-59.733333c12.8 12.8 19.2 32 19.2 49.066667 0 17.066667-6.4 36.266667-19.2 49.066666l-85.333333 85.333334c-19.2 19.2-53.333333 19.2-74.666667 0l-96-98.133334c-19.2-19.2-19.2-53.333333 0-74.666666l85.333334-85.333334c12.8-12.8 29.866667-19.2 49.066666-19.2 14.933333-2.133333 32 4.266667 44.8 17.066667z m98.133334 49.066667l59.733333-59.733334c6.4-6.4 10.666667-14.933333 10.666667-25.6 0-8.533333-4.266667-17.066667-10.666667-25.6L597.333333 401.066667c-6.4-6.4-14.933333-10.666667-25.6-10.666667-8.533333 0-17.066667 4.266667-25.6 10.666667l-59.733333 59.733333c-12.8-10.666667-19.2-29.866667-19.2-46.933333 0-17.066667 6.4-36.266667 19.2-49.066667l85.333333-85.333333c19.2-19.2 53.333333-19.2 74.666667 0l96 96c19.2 19.2 19.2 53.333333 0 74.666666l-85.333333 85.333334c-12.8 12.8-32 19.2-49.066667 19.2-17.066667 0-34.133333-6.4-46.933333-19.2z m-123.733334 25.6l121.6-121.6c6.4-6.4 17.066667-6.4 25.6 0 6.4 6.4 6.4 17.066667 0 25.6l-121.6 121.6c-6.4 6.4-17.066667 6.4-25.6 0-6.4-8.533333-6.4-19.2 0-25.6z m0 0"
          fill="#FFFFFF" p-id="2944"></path>
</svg>