<?xml version="1.0" standalone="no"?><!DOCTYPE svg PUBLIC "-//W3C//DTD SVG 1.1//EN"
        "http://www.w3.org/Graphics/SVG/1.1/DTD/svg11.dtd">
<svg t="1653221675546" class="icon" viewBox="0 0 1026 1024" version="1.1" xmlns="http://www.w3.org/2000/svg" p-id="1340"
     xmlns:xlink="http://www.w3.org/1999/xlink" width="200.390625" height="200">
    <defs>
        <style type="text/css">@font-face { font-family: feedback-iconfont; src:
            url("//at.alicdn.com/t/font_1031158_u69w8yhxdu.woff2?t=1630033759944") format("woff2"),
            url("//at.alicdn.com/t/font_1031158_u69w8yhxdu.woff?t=1630033759944") format("woff"),
            url("//at.alicdn.com/t/font_1031158_u69w8yhxdu.ttf?t=1630033759944") format("truetype"); }
        </style>
    </defs>
    <path d="M0 512C0 794.77211 229.22789 1024 512 1024S1024 794.77211 1024 512 794.77211 0 512 0 0 229.22789 0 512z"
          fill="#1FD279" p-id="1341"></path>
    <path d="M793.102045 470.181985a170.617297 170.617297 0 0 1-98.554254 73.600319c-1.072519 0.306434-2.114394 0.633297-3.186913 0.914195a72.726983 72.726983 0 0 1-19.836489 2.98773c-29.213367 0-45.71994-19.719022-36.843571-44.080518a70.224439 70.224439 0 0 1 44.254165-39.795551 76.971092 76.971092 0 0 0 54.713775-69.657537c0-41.966125-40.827212-75.990504-91.189626-75.990503s-91.25602 34.029486-91.25602 75.990503v233.094065a154.427372 154.427372 0 0 1-81.072199 133.007641 183.375162 183.375162 0 0 1-91.25602 24.070384c-94.984299 0-172.261825-70.464479-172.261826-157.078025a145.377357 145.377357 0 0 1 21.608699-75.990503 170.596868 170.596868 0 0 1 99.095621-73.799502h0.117466a73.682035 73.682035 0 0 1 21.889596-3.452488c29.346155 0 45.919122 19.836489 37.032539 44.2797a71.741287 71.741287 0 0 1-41.225577 38.447242c-2.236968 0.740549-4.458613 1.573027-6.613865 2.487222a76.01604 76.01604 0 0 0-50.796529 68.058973c0 41.976339 40.81189 76.005825 91.189626 76.005825s91.25602-34.029486 91.25602-76.005825V394.17616a154.422264 154.422264 0 0 1 81.0722-132.99232 183.339411 183.339411 0 0 1 91.189626-24.070384c94.984299 0 172.261825 70.449157 172.261825 157.062704a145.428429 145.428429 0 0 1-21.608698 76.005825h0.020429z"
          fill="#FFFFFF" p-id="1342"></path>
</svg>